<svg xmlns="http://www.w3.org/2000/svg" width="187.688" height="82.057" viewBox="0 0 187.688 82.057"><defs><style>.a{fill:none;stroke:#199bd5;stroke-width:0.808px;fill-rule:evenodd;}.b{fill:#008fdb;}.c{fill:#141215;}.d{fill:#666;}</style></defs><g transform="translate(-336.388 -205.973)"><path class="a" d="M385.114,285.851"/><path class="b" d="M523.621,263.175l-20.811-38.4a3.987,3.987,0,0,0-.47-.712c-.035-.041-.077-.077-.117-.117a3.831,3.831,0,0,0-.4-.394c-.082-.065-.175-.117-.265-.175a3.257,3.257,0,0,0-.309-.214l-.039-.017c-.107-.054-.223-.091-.334-.137a3.013,3.013,0,0,0-.354-.144.3.3,0,0,0-.05-.011,4.116,4.116,0,0,0-2.037,0,.271.271,0,0,0-.051.011,3.115,3.115,0,0,0-.356.144c-.111.046-.222.083-.332.137a.285.285,0,0,1-.039.017,3.613,3.613,0,0,0-.314.214c-.086.058-.18.11-.262.175a4.7,4.7,0,0,0-.4.394c-.034.04-.074.076-.114.117a3.771,3.771,0,0,0-.468.712l-20.809,38.4a3.762,3.762,0,1,0,6.615,3.586l17.549-32.391L517,266.761a3.765,3.765,0,0,0,6.621-3.586Z"/><path class="c" d="M480.41,212.408c0,3.554-1.748,6.437-3.9,6.437s-3.912-2.883-3.912-6.437,1.752-6.435,3.912-6.435S480.41,208.852,480.41,212.408Z"/><path class="b" d="M507.56,252.821a3.345,3.345,0,0,1-3.257,3.428H494.68a3.35,3.35,0,0,1-3.265-3.428h0a3.352,3.352,0,0,1,3.265-3.427H504.3a3.347,3.347,0,0,1,3.257,3.427Z"/><path class="c" d="M384.2,228.667a4.806,4.806,0,0,1-4.8,4.8H341.6a4.8,4.8,0,0,1-4.8-4.8h0a4.805,4.805,0,0,1,4.8-4.806h37.8a4.806,4.806,0,0,1,4.8,4.806Z"/><path class="d" d="M337.73,287.923h-1.342v-7.63h1.342Z"/><path class="d" d="M347.439,287.923h-1.913l-2.13-6.613.186,6.613h-1.327v-7.641h1.851l2.206,6.69-.184-6.69h1.311Z"/><path class="d" d="M351.27,285.286h1.3c0,.8,0,.885.015,1.025.016.2.108.91,1.312.91.432,0,1.373-.12,1.373-.952,0-.6-.386-.908-1-1.35l-1.482-1.059c-1.034-.746-1.25-1.212-1.25-1.9,0-.421,0-1.782,2.531-1.782a2.712,2.712,0,0,1,1.99.627c.309.355.309.615.309,1.738h-1.189a5.967,5.967,0,0,0-.061-.939c-.031-.141-.17-.617-1.127-.617-1.142,0-1.142.693-1.142.91,0,.572.294.8,1.066,1.371l1.372,1c.895.67,1.3,1.059,1.3,1.934,0,1.621-1.821,1.826-2.639,1.826a3.565,3.565,0,0,1-1.821-.378,1.57,1.57,0,0,1-.848-1.524Z"/><path class="d" d="M362.847,287.923H361.5v-6.775h-2.068v-.855h5.478v.855h-2.067Z"/><path class="d" d="M369.5,287.923h-1.343v-7.63H369.5Z"/><path class="d" d="M376.155,287.923h-1.343v-6.775h-2.068v-.855h5.477v.855h-2.066Z"/><path class="d" d="M386.713,280.293v5.143a2.964,2.964,0,0,1-.262,1.708c-.495.811-1.806.886-2.377.886a2.757,2.757,0,0,1-2.406-.832c-.216-.335-.248-.55-.248-1.7v-5.209h1.373v5.565c0,.659,0,1.351,1.313,1.351,1.172,0,1.2-.572,1.218-.929.015-.3.015-.367.015-.929v-5.058Z"/><path class="d" d="M393.322,287.923h-1.343v-6.775h-2.068v-.855h5.477v.855h-2.066Z"/><path class="d" d="M403.54,287.923h-4.906v-7.63h4.783v.855h-3.425v2.269H403v.864h-3.008v2.787h3.548Z"/><path class="d" d="M418.112,286.042c-.077.961-.416,1.988-2.669,1.988a4.142,4.142,0,0,1-1.466-.215,1.551,1.551,0,0,1-1.049-1.135,13.691,13.691,0,0,1-.108-2.313c0-.486.031-2.085.077-2.5.046-.389.263-1.7,2.731-1.7,2.268,0,2.453,1.187,2.515,1.6A20.35,20.35,0,0,1,418.2,284C418.2,284.6,418.159,285.47,418.112,286.042Zm-3.888-.5c.031.735-.154,1.7,1.281,1.7,1.157,0,1.2-.713,1.25-1.21a17.857,17.857,0,0,0,.076-2.03c-.015-.6-.015-1.2-.03-1.8-.016-.476-.031-1.232-1.25-1.232-1.234,0-1.281.832-1.312,1.22s-.03.5-.03,2.335C414.209,285.048,414.209,285.059,414.224,285.545Z"/><path class="d" d="M424,287.923h-1.373v-7.63h4.8v.855H424v2.247h2.979v.832H424Z"/><path class="d" d="M439.372,287.923h-1.343v-6.775h-2.067v-.855h5.477v.855h-2.067Z"/><path class="d" d="M449.591,287.923h-4.906v-7.63h4.783v.855h-3.426v2.269h3.009v.864h-3.009v2.787h3.549Z"/><path class="d" d="M458.528,285.231a5.227,5.227,0,0,1-.108,1.589c-.139.444-.494,1.21-2.453,1.21-1.667,0-2.346-.691-2.516-1.393a12.145,12.145,0,0,1-.107-2.443,10.952,10.952,0,0,1,.123-2.583c.092-.335.371-1.436,2.608-1.436.895,0,2,.269,2.284,1.1a4.32,4.32,0,0,1,.108,1.416H457.2v-.573c0-.518-.016-1.145-1.126-1.145-1.158,0-1.25.648-1.3.94a18.436,18.436,0,0,0-.094,2.292c0,.464.032,2.01.094,2.311.046.14.184.714,1.264.714.973,0,1.111-.583,1.158-.724a4.759,4.759,0,0,0,.061-1.276Z"/><path class="d" d="M467.714,287.923h-1.359v-3.556h-2.484v3.556h-1.357v-7.63h1.357v3.242h2.484v-3.242h1.359Z"/><path class="d" d="M477.424,287.923h-1.913l-2.13-6.613.185,6.613h-1.327v-7.641h1.853l2.2,6.69-.184-6.69h1.311Z"/><path class="d" d="M487.135,286.042c-.077.961-.416,1.988-2.668,1.988a4.144,4.144,0,0,1-1.467-.215,1.553,1.553,0,0,1-1.049-1.135,13.694,13.694,0,0,1-.108-2.313c0-.486.031-2.085.077-2.5.046-.389.264-1.7,2.73-1.7,2.27,0,2.453,1.187,2.516,1.6a20.344,20.344,0,0,1,.062,2.228C487.228,284.6,487.182,285.47,487.135,286.042Zm-3.888-.5c.031.735-.154,1.7,1.28,1.7,1.158,0,1.2-.713,1.25-1.21a17.413,17.413,0,0,0,.077-2.03c-.014-.6-.014-1.2-.03-1.8-.015-.476-.031-1.232-1.25-1.232-1.234,0-1.281.832-1.312,1.22s-.03.5-.03,2.335C483.232,285.048,483.232,285.059,483.247,285.545Z"/><path class="d" d="M496.213,287.923h-4.567v-7.63h1.373v6.775h3.194Z"/><path class="d" d="M504.95,286.042c-.078.961-.417,1.988-2.669,1.988a4.148,4.148,0,0,1-1.467-.215,1.553,1.553,0,0,1-1.048-1.135,13.688,13.688,0,0,1-.109-2.313c0-.486.032-2.085.078-2.5.045-.389.263-1.7,2.73-1.7,2.269,0,2.453,1.187,2.515,1.6a20.4,20.4,0,0,1,.063,2.228C505.043,284.6,505,285.47,504.95,286.042Zm-3.889-.5c.032.735-.154,1.7,1.282,1.7,1.157,0,1.2-.713,1.249-1.21a17.868,17.868,0,0,0,.077-2.03c-.015-.6-.015-1.2-.03-1.8-.016-.476-.032-1.232-1.25-1.232-1.235,0-1.282.832-1.313,1.22s-.029.5-.029,2.335C501.047,285.048,501.047,285.059,501.061,285.545Z"/><path class="d" d="M514.783,287.923h-1.142v-.529a3.12,3.12,0,0,1-2,.636,2.3,2.3,0,0,1-1.961-.886c-.186-.324-.309-.616-.309-2.754,0-1.158.063-2.346.108-2.617.125-.734.572-1.6,2.625-1.6a2.9,2.9,0,0,1,2.22.6c.369.369.369.616.369,1.849H513.41a4.876,4.876,0,0,0-.06-1.08c-.094-.3-.372-.574-1.174-.574-1.3,0-1.342.627-1.389,1.253-.031.421-.062,2.01-.062,2.583,0,.594.046.963.078,1.449.015.312.076.982,1.218.982a1.951,1.951,0,0,0,1.1-.3c.246-.185.4-.369.4-1.363V284.8h-1.6v-.821h2.869Z"/><path class="d" d="M521.469,287.923h-1.4v-2.994l-2.314-4.636H519.2l1.6,3.815,1.621-3.815h1.435l-2.392,4.636Z"/><path class="c" d="M481.619,229.175c.016-.164.024-.33.024-.5a4.843,4.843,0,0,0-4.8-4.879h-.309a1.733,1.733,0,0,0-.22-.018H397.932a4.981,4.981,0,0,0-3.066,1.073,9.656,9.656,0,0,0-2.469,2.91,16.66,16.66,0,0,0-1.681,4.285,23.162,23.162,0,0,0,0,10.621,16.675,16.675,0,0,0,1.681,4.285,9.665,9.665,0,0,0,2.469,2.912,4.977,4.977,0,0,0,3.066,1.07h32.673a1.842,1.842,0,0,1,1.532,1.124,5.444,5.444,0,0,1,.642,2.757,4.984,4.984,0,0,1-.642,2.606,1.84,1.84,0,0,1-1.532,1.068l-50.434,0H344.293a1.522,1.522,0,0,1-1.322-.767,3.178,3.178,0,0,1-.5-1.786V250.81l-5.656-4.443v8.55a21.58,21.58,0,0,0,.65,5.514,17.042,17.042,0,0,0,1.65,4.186,8.761,8.761,0,0,0,2.3,2.7,4.283,4.283,0,0,0,2.59.97h86.37a5.267,5.267,0,0,0,3.092-1.022,8.862,8.862,0,0,0,2.5-2.858,16.893,16.893,0,0,0,1.678-4.288,21.765,21.765,0,0,0,.617-5.308,22.4,22.4,0,0,0-.617-5.36,16.82,16.82,0,0,0-1.678-4.339,9.474,9.474,0,0,0-2.5-2.908,5.082,5.082,0,0,0-3.092-1.072H397.813a1.9,1.9,0,0,1-1.562-1.123,5.062,5.062,0,0,1-.677-2.658,5.007,5.007,0,0,1,.677-2.706,1.9,1.9,0,0,1,1.562-1.068h50.716a36.5,36.5,0,0,0-1.414,6.071,44.874,44.874,0,0,0-.471,6.382v17.354c0,.189,0,.374.016.554v.975a3.856,3.856,0,0,0,7.711,0v-.66c.027-.28.043-.568.043-.869V246.034a36.63,36.63,0,0,1,.234-3.881,18.1,18.1,0,0,1,.883-3.98,9.181,9.181,0,0,1,1.793-3.113,4.518,4.518,0,0,1,2.918-1.479h13.611v18.173c0,1.366.325,4.513,1.147,5.246l6.646-13.1Z"/><path class="b" d="M384.2,246.042a4.8,4.8,0,0,1-4.8,4.8H341.6a4.8,4.8,0,0,1-4.8-4.8h0a4.8,4.8,0,0,1,4.8-4.805h37.8a4.805,4.805,0,0,1,4.8,4.805Z"/></g></svg>